<?xml version="1.0" encoding="iso-8859-1"?>
<!-- Generator: Adobe Illustrator 19.0.0, SVG Export Plug-In . SVG Version: 6.00 Build 0)  -->
<svg version="1.1" id="Capa_1" xmlns="http://www.w3.org/2000/svg" xmlns:xlink="http://www.w3.org/1999/xlink" x="0px" y="0px"
	 viewBox="0 0 511.999 511.999" style="enable-background:new 0 0 511.999 511.999;" xml:space="preserve">
<path style="fill:#D9D9D9;" d="M255.999,391c-57.241,0-119.034-21.659-178.698-62.635c-44.622-30.647-72.275-61.029-73.43-62.308
	c-5.162-5.712-5.162-14.404,0-20.115c1.155-1.278,28.809-31.661,73.431-62.307C136.965,142.659,198.758,121,255.999,121
	s119.034,21.659,178.698,62.635c44.622,30.646,72.275,61.029,73.431,62.307c5.161,5.712,5.161,14.404,0,20.115
	c-1.155,1.278-28.809,31.661-73.431,62.307C375.034,369.341,313.241,391,255.999,391z M36.035,256.006
	c11.369,11.038,31.961,29.639,58.854,48.042C132.854,330.029,191.626,361,255.999,361c102.299,0,191.04-76.969,219.965-105.006
	c-11.371-11.04-31.964-29.641-58.854-48.042C379.145,181.971,320.374,151,255.999,151C153.701,151,64.959,227.969,36.035,256.006z"
	/>
<path style="fill:#4DBBEB;" d="M255.999,391c-74.439,0-135-60.561-135-135s60.561-135,135-135s135,60.561,135,135
	S330.439,391,255.999,391z M255.999,151c-57.897,0-105,47.103-105,105s47.103,105,105,105s105-47.103,105-105
	S313.897,151,255.999,151z"/>
<path style="fill:#787780;" d="M255.999,331c-41.355,0-75-33.645-75-75s33.645-75,75-75s75,33.645,75,75S297.355,331,255.999,331z
	 M255.999,211c-24.813,0-45,20.187-45,45c0,24.813,20.187,45,45,45s45-20.187,45-45S280.813,211,255.999,211z"/>
<g>
</g>
<g>
</g>
<g>
</g>
<g>
</g>
<g>
</g>
<g>
</g>
<g>
</g>
<g>
</g>
<g>
</g>
<g>
</g>
<g>
</g>
<g>
</g>
<g>
</g>
<g>
</g>
<g>
</g>
</svg>
