<svg id="Capa_1" enable-background="new 0 0 512 512" height="512" viewBox="0 0 512 512" width="512" xmlns="http://www.w3.org/2000/svg"><g><path d="m505.9 21.013-14.913-14.913c-6.799-6.799-17.368-8.059-25.575-3.05l-52.833 32.249c-4.197 2.562-7.352 6.525-8.906 11.19l-10.32 30.961c-1.022 3.067-2.745 5.854-5.031 8.14l-143.162 143.162 38.088 38.088 143.162-143.162c2.286-2.286 5.073-4.008 8.14-5.031l30.962-10.321c4.664-1.555 8.628-4.71 11.19-8.906l32.249-52.833c5.008-8.206 3.748-18.776-3.051-25.574z" fill="#9facba"/><path d="m259.077 208.485h35.012v53.864h-35.012z" fill="#8d9ca8" transform="matrix(.707 -.707 .707 .707 -85.456 264.526)"/><g><path d="m306.101 320.163c-8.414 8.414-22.056 8.414-30.47 0l-83.793-83.793c-8.414-8.414-8.414-22.056 0-30.47 8.414-8.414 22.056-8.414 30.47 0l83.793 83.793c8.414 8.414 8.414 22.056 0 30.47z" fill="#e279b3"/><path d="m306.1 289.692-25.709-25.709c8.414 8.414 8.414 22.056 0 30.47s-22.056 8.414-30.47 0l25.709 25.709c8.414 8.414 22.056 8.414 30.47 0 8.415-8.413 8.415-22.055 0-30.47z" fill="#de5ca3"/><g><path d="m243.256 363.964c4.207-4.207 4.207-11.028 0-15.235l-32.374-32.374c5.258 5.259 5.258 13.785 0 19.043l-154.256 154.255c-5.259 5.259-13.784 5.259-19.043.001l9.869 9.869c16.636 16.636 43.609 16.636 60.245 0z" fill="#dc3f93"/><path d="m22.347 455.374 154.255-154.255c5.259-5.259 13.784-5.259 19.043-.001l-32.374-32.374c-4.207-4.207-11.028-4.207-15.235 0l-135.559 135.559c-16.636 16.636-16.636 43.609 0 60.245l9.869 9.869c-5.258-5.258-5.258-13.784.001-19.043z" fill="#e279b3"/></g><path d="m22.347 455.374 154.255-154.255c5.259-5.259 13.785-5.259 19.044 0l15.235 15.235c5.259 5.259 5.259 13.785 0 19.044l-154.255 154.255c-5.259 5.259-13.785 5.259-19.044 0l-15.235-15.235c-5.259-5.259-5.259-13.785 0-19.044z" fill="#de5ca3"/><path d="m196.953 239.637h43.091v107.728h-43.091z" fill="#c4237c" transform="matrix(.707 -.707 .707 .707 -143.54 240.467)"/></g></g></svg>