<svg height="382.29333pt" viewBox="0 0 382.29333 382.29333" width="382.29333pt" xmlns="http://www.w3.org/2000/svg"><path d="m368.640625 191.148438c0 98.023437-79.46875 177.492187-177.492187 177.492187-98.027344 0-177.496094-79.46875-177.496094-177.492187 0-98.027344 79.46875-177.496094 177.496094-177.496094 98.023437 0 177.492187 79.46875 177.492187 177.496094zm0 0" fill="#e86436"/><g fill="#5c128d"><path d="m191.148438 382.292969c-105.402344 0-191.148438-85.746094-191.148438-191.144531 0-105.402344 85.746094-191.148438 191.148438-191.148438 105.398437 0 191.144531 85.746094 191.144531 191.148438 0 105.398437-85.746094 191.144531-191.144531 191.144531zm0-354.984375c-90.34375 0-163.839844 73.496094-163.839844 163.839844 0 90.339843 73.496094 163.839843 163.839844 163.839843 90.339843 0 163.839843-73.5 163.839843-163.839843 0-90.34375-73.5-163.839844-163.839843-163.839844zm0 0"/><path d="m259.414062 273.066406c-3.496093 0-6.988281-1.332031-9.652343-4l-136.535157-136.535156c-5.332031-5.332031-5.332031-13.972656 0-19.304688 5.332032-5.332031 13.976563-5.332031 19.304688 0l136.535156 136.535157c5.332032 5.332031 5.332032 13.972656 0 19.304687-2.664062 2.667969-6.160156 4-9.652344 4zm0 0"/><path d="m122.878906 273.066406c-3.492187 0-6.984375-1.332031-9.652344-4-5.332031-5.332031-5.332031-13.972656 0-19.304687l136.535157-136.535157c5.332031-5.332031 13.972656-5.332031 19.304687 0 5.332032 5.332032 5.332032 13.976563 0 19.304688l-136.535156 136.535156c-2.664062 2.667969-6.15625 4-9.652344 4zm0 0"/></g></svg>